<svg xmlns="http://www.w3.org/2000/svg" xmlns:xlink="http://www.w3.org/1999/xlink" width="732.223" height="825.112" viewBox="0 0 732.223 825.112">
  <defs>
    <filter id="Path_68" x="135" y="0" width="448" height="448" filterUnits="userSpaceOnUse">
      <feOffset input="SourceAlpha"/>
      <feGaussianBlur stdDeviation="25" result="blur"/>
      <feFlood flood-color="#ecaf5e"/>
      <feComposite operator="in" in2="blur"/>
      <feComposite in="SourceGraphic"/>
    </filter>
    <filter id="Ellipse_6" x="175" y="40" width="368" height="368" filterUnits="userSpaceOnUse">
      <feOffset input="SourceAlpha"/>
      <feGaussianBlur stdDeviation="20" result="blur-2"/>
      <feFlood flood-color="#cbe2b6"/>
      <feComposite operator="in" in2="blur-2"/>
      <feComposite in="SourceGraphic"/>
    </filter>
  </defs>
  <g id="budhu_sadhu" transform="translate(39.797 95.825)">
    <circle id="Ellipse_1" data-name="Ellipse 1" cx="297.47" cy="297.47" r="297.47" transform="translate(-39.797 570.396) rotate(-74.51)" fill="#f5efdb"/>
    <g transform="matrix(1, 0, 0, 1, -39.8, -95.83)" filter="url(#Path_68)">
      <path id="Path_68-2" data-name="Path 68" d="M149,0A149,149,0,1,1,0,149,149,149,0,0,1,149,0Z" transform="translate(210 75)" fill="#fefbd8"/>
    </g>
    <g transform="matrix(1, 0, 0, 1, -39.8, -95.83)" filter="url(#Ellipse_6)">
      <circle id="Ellipse_6-2" data-name="Ellipse 6" cx="124" cy="124" r="124" transform="translate(235 100)" fill="#fcfeea"/>
    </g>
    <path id="Path_1" data-name="Path 1" d="M585.547,413.08H131.65c-17.434,0-31.54,12.813-31.54,28.626s14.106,28.626,31.54,28.626h453.9c17.417,0,31.523-12.83,31.523-28.626S602.964,413.08,585.547,413.08Z" transform="translate(-32.288 231.29)" fill="#9a9b84"/>
    <path id="Path_2" data-name="Path 2" d="M399.316,209.616c-73.6-15.882-63.805-51.6-63.805-51.6H304.66v.673H273.9s9.709,35.714-63.805,51.6c-46.561,10.054-45.44,68.5-45.44,68.5V500.344H304.729v-.673H444.808V278.095S445.929,219.67,399.316,209.616Z" transform="translate(14.468 46.508)" fill="#e67f69"/>
    <path id="Path_3" data-name="Path 3" d="M373.177,183.5S390.3,364.465,164.62,364.465V481.884H444.777V247.133s0-56.407-57.235-58.891Z" transform="translate(14.447 64.968)" fill="#e25526"/>
    <path id="Path_4" data-name="Path 4" d="M164.62,295.42s68.979,43.37,190.536,27.591V364.4l-190.536-.276Z" transform="translate(14.447 146.05)" fill="#c44a1f" opacity="0.5"/>
    <path id="Path_5" data-name="Path 5" d="M226.08,176.76s33.955,29.074,68.548,0a48.577,48.577,0,0,1-4.6-18.71H229.391A46.147,46.147,0,0,1,226.08,176.76Z" transform="translate(58.973 46.53)" fill="#cc5b40"/>
    <path id="Path_6" data-name="Path 6" d="M153,328.4c0,6.484,0,70.979,31.627,70.979h29.454a11.933,11.933,0,0,0,12.071-11.761v-173.6a11.933,11.933,0,0,0-12.071-11.744L193.387,190.03c-6.691,0-40.352,7.294-40.352,46.871Z" transform="translate(6.029 69.698)" fill="#e67f69"/>
    <path id="Path_7" data-name="Path 7" d="M368.618,399.584s2.725-95.415-37.317-192.364L314.78,399.584Z" transform="translate(123.233 82.152)" fill="#e25526"/>
    <path id="Path_8" data-name="Path 8" d="M184.38,335.45c-41.473,0-75.1,30.523-75.1,68.168s33.627,68.151,75.1,68.151H385.574V335.45Z" transform="translate(-25.645 175.05)" fill="#e25526"/>
    <path id="Path_9" data-name="Path 9" d="M431.383,471.769c41.473,0,75.083-30.506,75.083-68.151s-33.61-68.168-75.083-68.168H230.19V471.769Z" transform="translate(61.95 175.05)" fill="#e25526"/>
    <path id="Path_10" data-name="Path 10" d="M353.407,135.819A75.739,75.739,0,1,1,277.668,60.08a75.739,75.739,0,0,1,75.739,75.739Z" transform="translate(41.477 -24.446)" fill="#3c2a34"/>
    <path id="Path_11" data-name="Path 11" d="M307.1,83.782A43.112,43.112,0,1,1,263.992,40.67,43.112,43.112,0,0,1,307.1,83.782Z" transform="translate(55.205 -38.508)" fill="#3c2a34"/>
    <path id="Path_12" data-name="Path 12" d="M279.79,187.53a5.173,5.173,0,0,0,5.173,5.26h0a5.173,5.173,0,0,0,5.26-5.26V128.674a5.173,5.173,0,0,0-5.26-5.173h0a5.277,5.277,0,0,0-5.173,5.173Z" transform="translate(97.883 21.499)" fill="#e67f69"/>
    <path id="Path_13" data-name="Path 13" d="M304.656,125.161a15.658,15.658,0,1,1-15.641-15.641,15.658,15.658,0,0,1,15.641,15.641Z" transform="translate(93.211 11.372)" fill="#e67f69"/>
    <path id="Path_14" data-name="Path 14" d="M296.291,114.768s-12.882-3.794-20.211,15.4C276.08,130.167,283.668,119.062,296.291,114.768Z" transform="translate(95.196 14.953)" fill="#cc5b40"/>
    <path id="Path_15" data-name="Path 15" d="M218.383,187.53a5.173,5.173,0,0,1-5.26,5.26h0a5.173,5.173,0,0,1-5.173-5.26V128.674a5.277,5.277,0,0,1,5.173-5.173h0a5.173,5.173,0,0,1,5.26,5.173Z" transform="translate(45.838 21.499)" fill="#e67f69"/>
    <path id="Path_16" data-name="Path 16" d="M202.25,125.161a15.641,15.641,0,1,0,4.587-11.066,15.658,15.658,0,0,0-4.587,11.066Z" transform="translate(41.709 11.372)" fill="#e67f69"/>
    <path id="Path_17" data-name="Path 17" d="M206,114.768s12.865-3.794,20.194,15.4C226.125,130.167,218.554,119.062,206,114.768Z" transform="translate(44.425 14.953)" fill="#cc5b40"/>
    <path id="Path_18" data-name="Path 18" d="M327.974,155.2a57.1,57.1,0,1,0,0,.006Z" transform="translate(50.062 3.098)" fill="#f69d81"/>
    <rect id="Rectangle_4" data-name="Rectangle 4" width="113.522" height="79.274" transform="translate(264.169 72.934)" fill="#f69d81"/>
    <path id="Path_19" data-name="Path 19" d="M253.1,119.312s14.141,17.693,28.281-.742C281.381,118.6,266.982,123.105,253.1,119.312Z" transform="translate(78.548 17.928)" fill="#3c2a34"/>
    <path id="Path_20" data-name="Path 20" d="M251.524,119.312S237.383,137,223.26,118.57C223.26,118.6,237.642,123.105,251.524,119.312Z" transform="translate(56.93 17.928)" fill="#3c2a34"/>
    <path id="Path_21" data-name="Path 21" d="M256.712,156.569a7.432,7.432,0,0,1-7.432,7.45h0a7.432,7.432,0,0,1-7.45-7.45V117.7a7.432,7.432,0,0,1,7.45-7.45h0a7.432,7.432,0,0,1,7.432,7.45Z" transform="translate(70.383 11.9)" fill="#e67f69"/>
    <path id="Path_22" data-name="Path 22" d="M223.609,117.3a2.587,2.587,0,0,1-1.155-4.915c18.348-9.157,31.627-.19,32.2.19a2.59,2.59,0,0,1-2.949,4.259c-.466-.31-11.433-7.553-26.936.19a2.708,2.708,0,0,1-1.155.276Z" transform="translate(55.288 10.473)" fill="#3c2a34"/>
    <path id="Path_23" data-name="Path 23" d="M255.086,117.285a2.639,2.639,0,0,1-2.328-1.431,2.6,2.6,0,0,1,1.173-3.449c18.331-9.157,31.627-.19,32.178.19a2.587,2.587,0,0,1-2.932,4.259c-.483-.31-11.433-7.553-26.936.19A2.829,2.829,0,0,1,255.086,117.285Z" transform="translate(78.114 10.487)" fill="#3c2a34"/>
    <path id="Path_24" data-name="Path 24" d="M253.327,151.911a29.213,29.213,0,0,1-15.71-4.294,2.569,2.569,0,0,1-.638-3.6,2.6,2.6,0,0,1,3.587-.655c.466.328,11.433,7.553,26.936-.172a2.587,2.587,0,0,1,2.311,4.622,36.662,36.662,0,0,1-16.486,4.1Z" transform="translate(66.525 35.562)" fill="#3c2a34"/>
    <path id="Path_25" data-name="Path 25" d="M331.2,84.762c0,6.467-26.246,11.692-58.632,11.692S213.94,91.28,213.94,84.762,240.186,73.07,272.572,73.07,331.2,78.312,331.2,84.762Z" transform="translate(50.178 -15.035)" fill="#3c2a34"/>
    <path id="Path_26" data-name="Path 26" d="M248.368,92.21s-35.058-2.88-30.833,75.876H213.31V78.224S233.469,72.413,248.368,92.21Z" transform="translate(49.721 -11.877)" fill="#3c2a34"/>
    <path id="Path_27" data-name="Path 27" d="M261,92.21s35.058-2.88,30.833,75.876h4.225V78.224S275.917,72.413,261,92.21Z" transform="translate(84.271 -11.877)" fill="#3c2a34"/>
    <path id="Path_28" data-name="Path 28" d="M293.994,123.93s-6.691,11.657-6.691,30.178l-3.363-26.884Z" transform="translate(100.89 21.811)" fill="#e67f69"/>
    <path id="Path_29" data-name="Path 29" d="M204,123.93s6.674,11.657,6.674,30.178l3.363-26.884Z" transform="translate(42.976 21.811)" fill="#e67f69"/>
    <path id="Path_30" data-name="Path 30" d="M378.115,197.56S383.65,369.817,202.34,388.01C202.34,388.01,374.2,362.522,378.115,197.56Z" transform="translate(41.774 75.154)" fill="#c44a1f"/>
    <path id="Path_31" data-name="Path 31" d="M429.618,201.73S409.769,421.2,173,397.44C173,397.44,392.231,462.9,429.618,201.73Z" transform="translate(20.518 78.175)" fill="#c44a1f"/>
    <path id="Path_32" data-name="Path 32" d="M286.17,317.3s39.387-35.731,98.157-1C384.327,316.3,334.834,298.139,286.17,317.3Z" transform="translate(102.506 150.177)" fill="#c44a1f"/>
    <path id="Path_33" data-name="Path 33" d="M169,337.541s120.885-1.5,173.292,9.088C342.309,346.629,244.118,322.4,169,337.541Z" transform="translate(17.62 172.959)" fill="#c44a1f"/>
    <path id="Path_34" data-name="Path 34" d="M156.71,451.39s119.816,25.746,178.137-104.52C334.83,346.87,307.239,475.619,156.71,451.39Z" transform="translate(8.716 183.324)" fill="#c44a1f"/>
    <path id="Path_35" data-name="Path 35" d="M161.69,374.134S236.653,401.4,327.411,346.87C327.411,346.87,250.535,419.522,161.69,374.134Z" transform="translate(12.324 183.324)" fill="#c44a1f"/>
    <path id="Path_36" data-name="Path 36" d="M262.94,393.15s90.724,39.335,185.535-21.78C448.475,371.336,353.854,447.177,262.94,393.15Z" transform="translate(85.676 201.073)" fill="#c44a1f"/>
    <path id="Path_37" data-name="Path 37" d="M256.05,391.49s87.086,57.873,204.332,10.347C460.382,401.8,336.824,468.729,256.05,391.49Z" transform="translate(80.685 215.649)" fill="#c44a1f"/>
    <path id="Path_38" data-name="Path 38" d="M267.88,392.412s6.9-46.871,23.3-51.061,42.37,20.694,54.562,14.33,58.028-3.121,47.457,7.708S270.725,403.553,267.88,392.412Z" transform="translate(89.255 178.979)" fill="#f69d81"/>
    <path id="Path_39" data-name="Path 39" d="M194.63,333.451s113.418-9.743,154.081-126.231c0,0-13.623,121.816-154.081,136.457Z" transform="translate(36.188 82.152)" fill="#cc5b40"/>
    <path id="Path_40" data-name="Path 40" d="M216.61,364.413c0,7.467-5.4,13.537-12.071,13.537H176.378a12.071,12.071,0,0,1-12.071-12.709V233.13c0-7.467,5.4-13.52,12.071-13.52h28.161c6.674,0,12.071,6.053,12.071,13.52Z" transform="translate(14.208 91.128)" fill="#f69d81"/>
    <path id="Path_41" data-name="Path 41" d="M267.2,363.07c-7.467,0-13.52-5.4-13.52-12.071V322.838a12.071,12.071,0,0,1,12.709-12.071H398.483c7.467,0,13.537,5.4,13.537,12.071V351c0,6.674-6.07,12.071-13.537,12.071Z" transform="translate(78.968 157.156)" fill="#f69d81"/>
    <rect id="Rectangle_5" data-name="Rectangle 5" width="52.303" height="18.314" transform="translate(178.515 330.88)" fill="#e67f69"/>
    <path id="Path_42" data-name="Path 42" d="M222,238.413c0,7.467-6.9,13.537-15.348,13.537h-31.04c-8.467,0-15.348-6.07-15.348-13.537v-9.726c0-7.484,6.9-13.537,15.348-13.537h31.04c8.484,0,15.348,6.053,15.348,13.537Z" transform="translate(11.288 87.897)" fill="#f69d81"/>
    <path id="Path_43" data-name="Path 43" d="M182.014,254.44a9.761,9.761,0,0,1-8.812,10.64h0a9.761,9.761,0,0,1-10.64-8.795l-5.173-54.1a9.76,9.76,0,0,1,8.795-10.64h0a9.778,9.778,0,0,1,10.657,8.795Z" transform="translate(9.176 70.766)" fill="#f69d81"/>
    <path id="Path_44" data-name="Path 44" d="M191.848,242.17a8.088,8.088,0,0,1-8.088,8.1h0a8.088,8.088,0,0,1-8.07-8.1V183.538a8.088,8.088,0,0,1,8.07-8.088h0a8.088,8.088,0,0,1,8.088,8.088Z" transform="translate(22.467 59.136)" fill="#f69d81"/>
    <path id="Path_45" data-name="Path 45" d="M183.148,246.757a8.088,8.088,0,0,1-8.088,8.088h0a8.088,8.088,0,0,1-8.07-8.088V188.125a8.105,8.105,0,0,1,8.071-8.1h0a8.1,8.1,0,0,1,8.088,8.1Z" transform="translate(16.164 62.446)" fill="#f69d81"/>
    <path id="Path_46" data-name="Path 46" d="M198.488,248.737a8.07,8.07,0,0,1-8.07,8.088h0a8.088,8.088,0,0,1-8.088-8.088V190.1a8.088,8.088,0,0,1,8.053-8.1h0a8.07,8.07,0,0,1,8.07,8.1Z" transform="translate(27.277 63.881)" fill="#f69d81"/>
    <path id="Path_47" data-name="Path 47" d="M205.548,258.86A9.778,9.778,0,0,1,194.373,267h0a9.743,9.743,0,0,1-8.122-11.157l8.415-53.683a9.761,9.761,0,0,1,11.157-8.14h0a9.778,9.778,0,0,1,8.139,11.175Z" transform="translate(30.03 72.503)" fill="#f69d81"/>
    <path id="Path_48" data-name="Path 48" d="M215.947,238.677c0,8.26-6.053,14.968-13.52,14.968h-20.3c-7.467,0-13.52-6.708-13.52-14.968V227.761c0-8.26,6.053-14.951,13.52-14.951h20.3c7.467,0,13.52,6.691,13.52,14.951Z" transform="translate(17.337 86.202)" fill="#f69d81"/>
    <path id="Path_49" data-name="Path 49" d="M168.72,236.771s7.45-18.5,34.317-9.709l5.311-30.213-9.605,24.039S176.411,212.629,168.72,236.771Z" transform="translate(17.417 74.639)" fill="#e67f69"/>
    <path id="Path_50" data-name="Path 50" d="M253.332,302a8.9,8.9,0,0,0-8.743-9h0a8.881,8.881,0,0,0-9.019,8.726v53.1c0,4.9,2.983,9.088,7.881,9.157h0a8.864,8.864,0,0,0,9.019-8.726Z" transform="translate(65.848 144.296)" fill="#e67f69"/>
    <path id="Path_51" data-name="Path 51" d="M235.46,307.647c0-6.76,6.07-12.227,13.572-12.227h16.676c7.5,0,13.572,5.467,13.572,12.227v54.3c0,6.743-6.07,12.209-13.572,12.209H249.1c-7.5,0-13.572-5.467-13.572-12.209Z" transform="translate(65.768 146.05)" fill="#e67f69"/>
    <path id="Path_52" data-name="Path 52" d="M260.745,291.531a8.864,8.864,0,0,0-8.864-8.881h0A8.864,8.864,0,0,0,243,291.531v53.234a8.881,8.881,0,0,0,8.881,8.881h0a8.881,8.881,0,0,0,8.864-8.881Z" transform="translate(71.231 136.798)" fill="#f69d81"/>
    <path id="Path_53" data-name="Path 53" d="M243,307.647c0-6.76,6.087-12.227,13.589-12.227h16.589c7.5,0,13.589,5.467,13.589,12.227v54.3c0,6.743-6.087,12.209-13.589,12.209H256.589c-7.5,0-13.589-5.467-13.589-12.209Z" transform="translate(71.231 146.05)" fill="#f69d81"/>
    <path id="Path_54" data-name="Path 54" d="M319.105,341.11S293.238,458.6,208.36,467.669C208.36,467.669,301.171,482.5,319.105,341.11Z" transform="translate(46.135 179.151)" fill="#c44a1f"/>
    <path id="Path_55" data-name="Path 55" d="M284,321.579s42.681-53.89,96.208-22.5C380.173,299.058,336.82,276.243,284,321.579Z" transform="translate(100.934 141.584)" fill="#c44a1f"/>
    <path id="Path_56" data-name="Path 56" d="M362.277,254.19S352.31,328.342,256.05,357C256.05,357,338.048,326.549,362.277,254.19Z" transform="translate(80.685 116.18)" fill="#c44a1f"/>
    <path id="Path_57" data-name="Path 57" d="M276.148,298.79a8.864,8.864,0,0,0-8.726-9.019h0A8.864,8.864,0,0,0,258.4,298.5l-.862,53.234a8.864,8.864,0,0,0,8.743,9.019h0a8.881,8.881,0,0,0,9.019-8.726Z" transform="translate(81.764 141.956)" fill="#f69d81"/>
    <path id="Path_58" data-name="Path 58" d="M267.762,291.531a8.881,8.881,0,0,0-8.881-8.881h0A8.864,8.864,0,0,0,250,291.531v53.234a8.881,8.881,0,0,0,8.881,8.881h0a8.9,8.9,0,0,0,8.881-8.881Z" transform="translate(76.302 136.798)" fill="#f69d81"/>
    <path id="Path_59" data-name="Path 59" d="M266.3,136.735a5.794,5.794,0,0,1-6.018,5.553H244.036A5.794,5.794,0,0,1,238,136.735h0a5.794,5.794,0,0,1,6.018-5.553h16.245a5.794,5.794,0,0,1,6.018,5.553Z" transform="translate(67.608 27.062)" fill="#e67f69"/>
    <path id="Path_60" data-name="Path 60" d="M268.33,384.549S330.2,405.587,384.059,361.82C384.059,361.785,334.118,393.171,268.33,384.549Z" transform="translate(89.581 194.154)" fill="#c44a1f"/>
    <path id="Path_61" data-name="Path 61" d="M173.171,397.475c0-47.7,53.458-61.977,53.458-61.977-2.035-.724-7.157.724-9.157,0H184.38c-41.473,0-75.1,30.523-75.1,68.168s33.627,68.151,75.1,68.151h111.59C223.336,471.886,173.171,445.157,173.171,397.475Z" transform="translate(-25.645 174.933)" fill="#c44a1f" opacity="0.5"/>
  </g>
</svg>
