<svg xmlns="http://www.w3.org/2000/svg" width="115" height="115" viewBox="0 0 115 115">
  <g id="logo" transform="translate(-864 -883)">
    <circle id="Ellipse_7" data-name="Ellipse 7" cx="57.5" cy="57.5" r="57.5" transform="translate(864 883)" fill="#f8864b"/>
    <g id="layer1" transform="translate(872.691 891.645)">
      <g id="g7039" transform="translate(0 0)">
        <path id="path2507" d="M105.839,39.317v.012l-4.065,3.852.366,4.114A40.6,40.6,0,0,0,80.048,56.4L77.3,53.113l-5.6.153-.006-.012v.018l-.153,5.6,3.254,2.722A40.606,40.606,0,0,0,65.3,84.5l-4.383-.391-3.852,4.066h-.012l.006.006-.006.006h.012l3.852,4.066,4.432-.4A40.6,40.6,0,0,0,74.859,114.3l-3.516,2.936.153,5.6-.006.012H71.5l5.6.147,2.973-3.559a40.6,40.6,0,0,0,22.1,9.083l-.4,4.511,4.065,3.852v.012l.006-.006.006.006v-.012l4.065-3.852-.4-4.493a40.606,40.606,0,0,0,22.238-9.059l2.832,3.388,5.6-.146h.012l-.006-.012.153-5.6-3.333-2.79a40.6,40.6,0,0,0,9.523-22.434l4.133.366,3.852-4.066h.012l-.006-.006.006-.006h-.012l-3.852-4.066-4.09.366a40.6,40.6,0,0,0-9.395-22.763l3.162-2.643-.153-5.6v-.018l-.006.012-5.6-.153-2.655,3.174a40.607,40.607,0,0,0-22.379-9.2l.366-4.1-4.065-3.852v-.012l-.006.006Zm3.125,14.523a34.033,34.033,0,0,1,18.741,7.7L116.137,75.37a16.332,16.332,0,0,0-8.772-3.608Zm-6.239.018,1.6,17.9a16.307,16.307,0,0,0-8.607,3.388L84.278,61.458A34.036,34.036,0,0,1,102.726,53.858ZM79.852,65.822,93.5,77.232a16.335,16.335,0,0,0-4.047,9.419L71.868,85.082A34.054,34.054,0,0,1,79.852,65.822Zm52.279.11a34.053,34.053,0,0,1,7.887,19.125l-17.886,1.593A16.331,16.331,0,0,0,118.3,77.5Zm-26.6,9.6h.079c.081,0,.163,0,.244,0a12.408,12.408,0,1,1-.324,0ZM89.461,89.7a16.342,16.342,0,0,0,3.907,9.114l-13.454,11.25a34.043,34.043,0,0,1-8-18.8Zm32.653,0L139.969,91.3a34.051,34.051,0,0,1-8.009,18.8L118.316,98.683A16.33,16.33,0,0,0,122.113,89.7Zm-5.964,11.11,11.379,13.607a34.028,34.028,0,0,1-18.6,7.551l-1.563-17.538A16.33,16.33,0,0,0,116.149,100.813Zm-20.59.11a16.309,16.309,0,0,0,8.766,3.516l-1.563,17.514a34.03,34.03,0,0,1-18.46-7.576Z" transform="translate(-57.052 -39.317)" fill="#fdfdfd" fill-rule="evenodd"/>
        <g id="g7028" transform="translate(38.034 37.903)">
          <path id="path2518" d="M102.019,178.349a3.524,3.524,0,1,1-3.524-3.524,3.524,3.524,0,0,1,3.524,3.524Z" transform="translate(-87.655 -167.536)" fill="#fdfdfd" fill-rule="evenodd"/>
          <path id="path4340" d="M299.96,223.14l-2.254.931-4.14-4.14,6.394-2.535Z" transform="translate(-289.924 -217.34)" fill="#fdfdfd" fill-rule="evenodd"/>
          <path id="path5220" d="M337.155,223.9l-2.253-.936v-5.855l6.314,2.729Z" transform="translate(-323.186 -217.109)" fill="#fdfdfd" fill-rule="evenodd"/>
          <path id="path5222" d="M281.716,239.989l-.935,2.253h-5.855l2.729-6.314Z" transform="translate(-274.926 -232.252)" fill="#fdfdfd" fill-rule="evenodd"/>
          <path id="path5224" d="M281.317,277.4l.931,2.254-4.14,4.14-2.535-6.394Z" transform="translate(-275.447 -265.626)" fill="#fdfdfd" fill-rule="evenodd"/>
          <path id="path5226" d="M298.078,293.384l2.253.936v5.855l-6.314-2.729Z" transform="translate(-290.287 -278.484)" fill="#fdfdfd" fill-rule="evenodd"/>
          <path id="path5228" d="M334.426,294.267l2.254-.931,4.14,4.14-6.394,2.535Z" transform="translate(-322.803 -278.445)" fill="#fdfdfd" fill-rule="evenodd"/>
          <path id="path5230" d="M351.2,279.891l.935-2.253h5.855l-2.729,6.314Z" transform="translate(-336.3 -265.814)" fill="#fdfdfd" fill-rule="evenodd"/>
          <path id="path5232" d="M352.537,242.418l-.931-2.254,4.14-4.14,2.535,6.394Z" transform="translate(-336.627 -232.329)" fill="#fdfdfd" fill-rule="evenodd"/>
        </g>
      </g>
    </g>
  </g>
</svg>
